<?xml version="1.0" standalone="no"?>
<!DOCTYPE svg PUBLIC "-//W3C//DTD SVG 20010904//EN"
 "http://www.w3.org/TR/2001/REC-SVG-20010904/DTD/svg10.dtd">
<svg version="1.0" xmlns="http://www.w3.org/2000/svg"
 width="728.000000pt" height="410.000000pt" viewBox="0 0 728.000000 410.000000"
 preserveAspectRatio="xMidYMid meet">
<metadata>
Created by potrace 1.15, written by Peter Selinger 2001-2017
</metadata>
<g transform="translate(0.000000,410.000000) scale(0.100000,-0.100000)"
fill="#000000" stroke="none">
<path d="M0 2050 l0 -2050 3270 0 c3202 0 3270 0 3270 19 0 10 7 22 16 25 9 3
175 6 370 6 l354 0 0 2025 0 2025 -3640 0 -3640 0 0 -2050z m3680 -923 c0 -7
-4 -6 -10 3 -8 12 -10 10 -11 -10 0 -21 -2 -22 -8 -7 -6 15 -9 16 -17 5 -8
-12 -9 -20 -5 -53 1 -5 5 -4 9 3 14 21 39 3 39 -28 0 -17 -4 -30 -8 -30 -5 0
3 -11 17 -25 14 -14 31 -22 39 -19 9 4 15 0 15 -9 0 -14 20 -27 41 -27 5 0 9
9 9 20 0 12 10 24 23 30 12 5 15 9 8 9 -12 1 -13 3 -2 14 10 10 15 8 26 -7 8
-10 19 -15 26 -10 8 4 10 3 5 -4 -8 -13 16 -17 28 -5 11 12 36 12 36 1 0 -6 9
-3 19 6 11 10 25 15 30 11 6 -3 11 0 11 7 0 10 3 10 9 -1 8 -12 16 -13 50 -2
23 6 41 16 41 21 0 16 35 17 54 1 17 -15 18 -14 15 4 -3 14 2 20 16 20 11 1
26 4 33 8 8 5 12 2 12 -8 0 -15 1 -15 16 -1 8 9 23 16 32 16 26 0 82 23 82 35
0 5 5 3 10 -5 8 -12 10 -12 11 5 l0 20 9 -20 c7 -17 9 -17 9 -2 1 10 9 17 20
17 40 0 51 -11 51 -52 0 -23 -4 -37 -10 -33 -5 3 -10 0 -10 -7 0 -8 -3 -9 -8
-3 -9 12 -42 16 -42 4 0 -4 4 -11 10 -14 6 -4 2 -15 -9 -27 -18 -19 -48 -17
-36 3 10 15 -29 10 -51 -6 -10 -8 -38 -15 -62 -15 -29 0 -45 -5 -49 -15 -8
-22 0 -27 56 -33 35 -3 48 -8 44 -17 -2 -8 5 -18 16 -25 32 -16 25 -37 -14
-44 -24 -5 -33 -11 -28 -21 7 -19 63 -20 63 -2 0 17 42 37 75 37 14 0 25 -5
25 -11 0 -6 -9 -9 -20 -6 -11 3 -20 1 -20 -5 0 -5 -4 -7 -9 -4 -5 3 -11 -1
-15 -9 -4 -12 5 -15 52 -16 152 -3 222 -12 222 -30 0 -5 -12 -9 -27 -10 -27 0
-26 -1 7 -13 53 -20 120 -30 120 -18 0 5 -8 13 -17 16 -14 6 -15 9 -2 19 28
25 96 41 176 42 46 0 83 -3 83 -7 0 -5 -9 -8 -21 -8 -11 0 -18 -4 -14 -10 7
-11 124 -8 144 4 8 5 16 4 21 -4 4 -7 13 -9 20 -5 6 4 51 4 98 0 48 -4 80 -10
72 -13 -10 -4 -2 -10 22 -16 20 -6 36 -15 35 -21 -1 -5 -4 -9 -7 -9 -3 1 -37
5 -76 8 -53 5 -81 2 -109 -9 -49 -21 -40 -27 26 -18 30 4 79 5 109 2 30 -3 49
-6 43 -7 -7 -1 -13 -9 -13 -17 0 -8 -12 -18 -27 -21 -22 -6 -24 -9 -11 -18 12
-9 6 -11 -29 -12 -24 -1 -40 2 -34 5 22 14 -109 2 -140 -12 -19 -8 -45 -18
-59 -21 -14 -3 -34 -12 -45 -21 -16 -12 -17 -14 -2 -9 20 7 21 3 6 -30 -13
-27 -44 -40 -119 -51 -25 -4 -55 -13 -67 -21 -12 -8 -33 -14 -47 -14 -13 0
-47 -5 -75 -12 -40 -9 -56 -9 -75 2 -13 7 -37 10 -53 7 -111 -23 -142 -25
-207 -18 -39 5 -172 8 -296 6 -219 -2 -322 -13 -403 -44 -34 -13 -243 -15
-251 -2 -3 4 -69 6 -146 3 -79 -3 -140 -1 -140 4 0 5 -17 9 -38 10 -50 1 -102
13 -102 25 0 5 -11 9 -25 9 -14 0 -25 -4 -25 -10 0 -5 -7 -10 -15 -10 -8 0
-15 6 -15 14 0 21 -23 26 -115 26 -80 0 -83 1 -87 24 -8 42 5 48 112 57 56 5
105 11 109 13 17 11 275 7 436 -7 243 -21 346 -13 458 36 29 13 38 52 16 74
-8 8 -7 17 2 31 12 19 15 20 30 6 10 -9 15 -23 12 -31 -7 -17 0 -16 161 8 61
9 80 16 83 30 3 9 17 23 33 29 24 10 27 15 21 38 -10 38 -62 50 -149 33 -37
-7 -78 -14 -92 -15 -14 -1 -34 -7 -45 -13 -11 -6 -35 -14 -52 -18 -18 -3 -36
-11 -39 -17 -24 -38 -249 -63 -379 -41 l-40 6 30 8 c17 5 66 12 110 16 56 4
85 12 99 24 25 24 16 27 -104 33 -108 6 -170 15 -186 27 -6 5 -24 8 -40 8 -16
0 -94 5 -174 10 l-145 9 175 -3 c124 -3 194 -9 240 -21 65 -17 242 -25 256
-12 12 13 -16 36 -52 42 -38 8 -38 21 1 28 18 4 29 0 36 -13 13 -25 33 -24 26
1 -4 17 -2 18 14 9 12 -6 19 -6 19 0 0 13 -20 25 -43 26 -20 2 -37 21 -37 43
0 6 -10 12 -22 12 -13 0 -32 7 -42 15 -11 8 -25 15 -30 15 -6 0 -2 -7 8 -15
20 -15 20 -15 0 -14 -10 0 -33 6 -50 12 -26 10 -30 16 -23 32 6 17 8 17 8 3 1
-22 17 -24 24 -4 5 13 -18 31 -35 28 -5 -1 -8 3 -8 8 0 6 7 10 15 10 8 0 15 9
15 20 0 22 15 27 26 9 4 -8 10 -7 18 1 8 8 7 15 -6 24 -10 7 -15 16 -11 19 3
4 12 -1 19 -11 11 -14 15 -15 23 -3 12 18 23 -2 14 -26 -6 -17 -5 -17 15 1 22
19 22 19 22 -2 0 -13 6 -22 15 -22 8 0 15 7 15 16 0 8 -4 12 -10 9 -5 -3 -10
1 -10 9 0 10 6 13 18 9 13 -5 15 -3 5 7 -13 14 1 55 15 46 5 -3 14 -1 22 4 16
10 30 4 30 -13z m1195 -73 c-7 -8 -19 -27 -26 -43 -11 -25 -21 -31 -61 -36
-26 -4 -52 -13 -59 -21 -10 -12 -14 -12 -20 -2 -7 10 -9 10 -9 1 0 -9 -11 -6
-35 7 -19 11 -35 18 -35 16 0 -3 -3 -12 -7 -22 -4 -12 -3 -15 5 -10 7 4 12 2
12 -3 0 -17 -30 -13 -36 4 -4 10 -20 15 -45 15 -21 0 -39 5 -39 10 0 6 9 10
20 10 11 0 20 6 20 14 0 9 8 12 25 8 18 -3 25 0 23 9 -2 8 2 13 9 12 7 -2 39
4 71 12 32 9 78 17 101 19 24 2 47 9 51 16 4 7 13 9 19 6 6 -4 11 -1 11 6 0
10 2 10 9 -1 6 -9 4 -19 -4 -27z m-3458 -377 c23 0 40 -4 38 -7 -3 -4 36 -13
85 -19 85 -11 140 -27 140 -40 0 -14 -66 -33 -157 -47 -54 -7 -116 -18 -137
-23 -56 -14 -240 3 -316 29 -73 25 -91 21 -26 -6 25 -11 46 -22 46 -26 0 -8
-36 -20 -70 -23 -59 -6 -116 -17 -126 -26 -6 -5 -80 -10 -165 -12 -163 -2
-286 14 -296 39 -3 8 -12 14 -21 14 -13 0 -13 3 -4 12 8 8 40 12 90 11 70 -2
74 -1 47 11 l-30 12 58 28 c31 16 55 32 52 36 -3 5 -1 11 4 15 17 10 234 -15
300 -36 35 -10 67 -17 70 -14 3 3 -5 8 -17 12 -35 9 -26 24 14 21 19 -1 38 3
42 9 9 13 55 22 157 29 44 3 82 8 84 10 3 3 25 2 50 -2 26 -4 65 -7 88 -7z"/>
<path d="M4074 899 c-34 -4 -86 -19 -115 -34 -30 -14 -69 -34 -88 -43 -19 -9
-36 -22 -38 -28 -4 -13 88 -11 137 3 19 6 71 19 115 29 82 19 95 26 95 55 0
21 -30 26 -106 18z"/>
</g>
</svg>
